<?xml version="1.0" encoding="iso-8859-1"?>
<!-- Generator: Adobe Illustrator 16.0.0, SVG Export Plug-In . SVG Version: 6.00 Build 0)  -->
<!DOCTYPE svg PUBLIC "-//W3C//DTD SVG 1.1//EN" "http://www.w3.org/Graphics/SVG/1.1/DTD/svg11.dtd">
<svg version="1.1" id="Layer_1" xmlns="http://www.w3.org/2000/svg" xmlns:xlink="http://www.w3.org/1999/xlink" x="0px" y="0px"
	 width="1024px" height="1024px" viewBox="0 0 1024 1024" style="enable-background:new 0 0 1024 1024;" xml:space="preserve">
<path d="M869.579,216.994c20.487-53.442,18.259-111.562-6.681-174.357l-16.701-2.004c-11.578-1.336-32.399,3.562-62.462,14.696
	c-30.062,11.135-63.797,29.394-101.207,54.779c-52.997-14.696-108.001-22.045-165.006-22.045c-57.451,0-112.23,7.349-164.336,22.045
	c-23.603-16.033-45.982-29.281-67.138-39.748s-38.078-17.591-50.771-21.377c-12.693-3.787-24.496-6.125-35.406-7.015
	s-17.925-1.114-21.043-0.668c-3.119,0.446-5.345,0.89-6.681,1.336c-24.939,63.242-27.168,121.361-6.681,174.357
	c-44.98,48.545-67.472,107.333-67.472,176.362c0,35.628,3.118,68.252,9.353,97.868c6.234,29.615,14.697,55,25.386,76.156
	c10.688,21.155,23.937,40.082,39.748,56.783c15.812,16.7,32.288,30.283,49.435,40.75c17.147,10.467,36.521,19.485,58.119,27.056
	c21.6,7.57,42.087,13.36,61.46,17.369c19.372,4.008,40.637,7.126,63.796,9.353c-36.52,24.938-54.777,64.577-54.777,118.91v131.243
	l0,0v0.001c0,7.721,6.259,13.98,13.981,13.98h306.723c7.722,0,13.981-6.26,13.981-13.98v-0.001l0,0V837.602
	c0-53.889-18.483-93.525-55.447-118.91c23.159-2.227,44.425-5.345,63.798-9.353c19.373-4.009,39.86-9.799,61.459-17.369
	c21.6-7.57,40.973-16.589,58.12-27.056c17.146-10.467,33.623-24.05,49.435-40.75c15.811-16.701,29.06-35.628,39.748-56.783
	c10.688-21.156,19.151-46.541,25.386-76.156c6.233-29.616,9.353-62.24,9.353-97.868
	C937.051,324.327,914.559,265.539,869.579,216.994z"/>
</svg>
