<?xml version="1.0" encoding="iso-8859-1"?>
<!-- Generator: Adobe Illustrator 16.0.0, SVG Export Plug-In . SVG Version: 6.00 Build 0)  -->
<!DOCTYPE svg PUBLIC "-//W3C//DTD SVG 1.1//EN" "http://www.w3.org/Graphics/SVG/1.1/DTD/svg11.dtd">
<svg version="1.1" id="Layer_1" xmlns="http://www.w3.org/2000/svg" xmlns:xlink="http://www.w3.org/1999/xlink" x="0px" y="0px"
	 width="878px" height="1024px" viewBox="0 0 878 1024" style="enable-background:new 0 0 878 1024;" xml:space="preserve">
<g>
	<path d="M877.714,146.286v256c0,9.904-3.619,18.476-10.857,25.714s-15.81,10.857-25.714,10.857h-256
		c-16,0-27.238-7.619-33.714-22.857c-6.477-14.857-3.81-28,8-39.429l78.856-78.857c-56.38-52.19-122.856-78.286-199.429-78.286
		c-39.619,0-77.429,7.714-113.429,23.143s-67.143,36.286-93.429,62.571s-47.144,57.428-62.571,93.429
		c-15.428,36-23.143,73.81-23.143,113.429c-0.001,39.619,7.713,77.429,23.143,113.429c15.43,36.001,36.286,67.144,62.571,93.43
		c26.284,26.285,57.428,47.142,93.429,62.57s73.811,23.144,113.429,23.144c45.333,0,88.19-9.905,128.571-29.714
		c40.381-19.81,74.476-47.81,102.286-84c2.666-3.81,7.047-6.096,13.143-6.857c5.333,0,10.096,1.714,14.286,5.144l78.286,78.856
		c3.429,3.048,5.238,6.952,5.429,11.714s-1.238,9.048-4.286,12.857c-41.523,50.286-91.81,89.238-150.856,116.856
		c-59.048,27.619-121.333,41.429-186.857,41.43c-59.429,0-116.19-11.619-170.286-34.857c-54.095-23.238-100.762-54.476-140-93.714
		c-39.237-39.238-70.476-85.904-93.714-140C11.62,628.191,0.001,571.43,0.001,512.001s11.619-116.19,34.856-170.286
		c23.238-54.095,54.477-100.762,93.714-140c39.238-39.238,85.905-70.476,140-93.714c54.096-23.238,110.857-34.857,170.286-34.857
		c56,0,110.19,10.571,162.571,31.714s98.952,50.953,139.714,89.429l74.286-73.714c11.047-11.81,24.381-14.476,40-8
		C870.286,119.049,877.715,130.287,877.714,146.286L877.714,146.286z"/>
</g>
</svg>
