<?xml version="1.0" encoding="iso-8859-1"?>
<!-- Generator: Adobe Illustrator 16.0.0, SVG Export Plug-In . SVG Version: 6.00 Build 0)  -->
<!DOCTYPE svg PUBLIC "-//W3C//DTD SVG 1.1//EN" "http://www.w3.org/Graphics/SVG/1.1/DTD/svg11.dtd">
<svg version="1.1" id="Layer_1" xmlns="http://www.w3.org/2000/svg" xmlns:xlink="http://www.w3.org/1999/xlink" x="0px" y="0px"
	 width="10px" height="10px" viewBox="0 0 10 10" style="enable-background:new 0 0 10 10;" xml:space="preserve">
<g>
	<g>
		<g>
			<path d="M4.968,1.646l0.893,2.288l0.122,0.312l0.336,0.006L8.567,4.29L6.801,5.677L6.537,5.884l0.091,0.322L7.27,8.474
				l-1.945-1.38L5.03,6.885L4.739,7.1L2.811,8.52L3.41,6.247l0.086-0.325L3.228,5.72L1.427,4.363l2.239-0.081L4,4.271l0.116-0.315
				L4.968,1.646 M4.955,0.237L3.647,3.783L0,3.915l2.927,2.205L1.966,9.764l3.069-2.262l3.101,2.199L7.109,6.07l2.875-2.257
				L6.327,3.752L4.955,0.237L4.955,0.237z"/>
		</g>
	</g>
</g>
</svg>
