<?xml version="1.0" encoding="iso-8859-1"?>
<!-- Generator: Adobe Illustrator 16.0.0, SVG Export Plug-In . SVG Version: 6.00 Build 0)  -->
<!DOCTYPE svg PUBLIC "-//W3C//DTD SVG 1.1//EN" "http://www.w3.org/Graphics/SVG/1.1/DTD/svg11.dtd">
<svg version="1.1" id="Layer_1" xmlns="http://www.w3.org/2000/svg" xmlns:xlink="http://www.w3.org/1999/xlink" x="0px" y="0px"
	 width="1024px" height="1024px" viewBox="0 0 1024 1024" style="enable-background:new 0 0 1024 1024;" xml:space="preserve">
<g>
	<path d="M952.244,243.803c-32.812,14.567-67.996,24.344-104.969,28.796c37.75-22.6,66.738-58.414,80.338-101.053
		c-35.283,20.909-74.387,36.153-115.959,44.331c-33.346-35.521-80.82-57.687-133.381-57.687
		c-100.904,0-182.695,81.79-182.695,182.648c0,14.325,1.599,28.264,4.743,41.621c-151.818-7.597-286.458-80.338-376.523-190.876
		c-15.775,26.956-24.827,58.365-24.827,91.855c0,63.398,32.279,119.299,81.306,152.062c-29.958-0.968-58.124-9.148-82.758-22.842
		c0,0.773,0,1.499,0,2.272c0,88.519,63.014,162.323,146.546,179.163c-15.295,4.162-31.458,6.39-48.155,6.39
		c-11.76,0-23.181-1.116-34.361-3.242c23.231,72.594,90.744,125.396,170.646,126.847c-62.528,49.027-141.269,78.209-226.882,78.209
		c-14.762,0-29.282-0.873-43.558-2.566c80.823,51.832,176.841,82.079,280.069,82.079c336.014,0,519.776-278.375,519.776-519.824
		c0-7.888-0.146-15.776-0.533-23.618C896.783,312.621,927.707,280.438,952.244,243.803L952.244,243.803z"/>
</g>
</svg>
