<svg xmlns="http://www.w3.org/2000/svg" width="96" height="96" viewBox="0 0 96 96"><polygon points="17.732,57.545 17.732,23.236 18.031,23.059 32.751,31.724 32.751,66.037 32.452,66.211" fill-rule="evenodd" clip-rule="evenodd" fill="#B1B3B5" opacity=".55"/><polygon points="32.153,66.037 32.153,31.724 46.872,23.059 47.17,23.236 47.17,57.545 32.452,66.211" fill-rule="evenodd" clip-rule="evenodd" fill="#CCCECF" opacity=".55"/><polygon points="17.732,23.576 17.732,23.235 32.483,14.541 47.17,23.236 47.17,23.576 32.452,32.242" fill-rule="evenodd" clip-rule="evenodd" fill="#B9BBBD" opacity=".55"/><polygon points="37.741,45.516 37.741,32.13 38.04,31.954 48.497,38.118 48.497,51.502 48.198,51.678" fill-rule="evenodd" clip-rule="evenodd" fill="#BBBDBF" opacity=".55"/><polygon points="55.111,89.279 55.111,79.215 70.533,70.11 63.611,66.025 63.611,31.724 78.333,23.059 78.631,23.235 78.64,75.723 55.412,89.455" fill-rule="evenodd" clip-rule="evenodd" fill="#CCCECF" opacity=".55"/><polygon points="63.611,66.025 63.611,39.423 63.911,39.245 71.707,43.846 71.419,44.015 71.419,70.28 71.122,70.458" fill-rule="evenodd" clip-rule="evenodd" fill="#B2B4B7" opacity=".55"/><polygon points="49.194,57.545 49.194,23.236 49.493,23.059 64.209,31.724 64.209,66.376" fill-rule="evenodd" clip-rule="evenodd" fill="#A2A4A7" opacity=".55"/><polygon points="47.899,51.503 47.899,38.118 58.361,31.954 58.66,32.133 58.66,45.516 48.198,51.678" fill-rule="evenodd" clip-rule="evenodd" fill="#DBDCDD" opacity=".55"/><polygon points="37.741,32.472 37.741,32.13 48.184,25.951 58.66,32.13 58.66,32.472 48.198,38.636" fill-rule="evenodd" clip-rule="evenodd" fill="#C4C5C7" opacity=".55"/><polygon points="47.895,85.021 47.895,74.965 48.193,74.789 55.709,79.215 55.709,89.279 55.412,89.455" fill-rule="evenodd" clip-rule="evenodd" fill="#B1B3B5" opacity=".55"/><polygon points="47.895,75.305 47.895,74.965 63.611,65.683 63.611,65.614 64.091,65.614 71.419,69.94 71.419,70.281 55.412,79.734" fill-rule="evenodd" clip-rule="evenodd" fill="#B9BBBD" opacity=".55"/><polygon points="63.611,39.764 63.611,39.423 71.11,34.965 78.634,39.406 78.634,39.746 71.419,44.015 71.419,44.37" fill-rule="evenodd" clip-rule="evenodd" fill="#C4C5C7" opacity=".55"/><polygon points="49.194,23.576 49.194,23.236 63.89,14.541 78.631,23.235 78.631,23.576 63.911,32.242" fill-rule="evenodd" clip-rule="evenodd" fill="#B9BBBD" opacity=".55"/><g opacity=".65"><polygon points="47.707,85.279 47.708,74.963 63.014,65.919 49.012,57.677 49.012,51.413 48.196,51.894 47.352,51.396 47.352,57.677 32.38,66.493 17.408,57.677 17.408,22.998 32.412,14.155 47.352,22.999 47.352,26.109 48.184,25.617 49.012,26.106 49.012,22.998 63.962,14.155 78.955,22.998 78.964,75.938 55.444,89.842" fill-rule="evenodd" clip-rule="evenodd" fill="#D2D2D2"/><polygon points="47.707,85.279 47.708,74.963 63.014,65.919 49.012,57.677 49.012,51.413 48.196,51.894 47.352,51.396 47.352,57.677 32.38,66.493 17.408,57.677 17.408,22.998 32.412,14.155 47.352,22.999 47.352,26.109 48.184,25.617 49.012,26.106 49.012,22.998 63.962,14.155 78.955,22.998 78.964,75.938 55.444,89.842" stroke="#676767" stroke-width=".405" stroke-miterlimit="10" fill="none"/></g><path d="M48 1c25.916 0 47 21.084 47 47s-21.084 47-47 47-47-21.084-47-47 21.084-47 47-47m0-1c-26.51 0-48 21.49-48 48s21.49 48 48 48 48-21.49 48-48-21.49-48-48-48z" fill="#D9DBDC"/></svg>