<svg xmlns="http://www.w3.org/2000/svg" xmlns:xlink="http://www.w3.org/1999/xlink" width="64" height="64" viewBox="0 0 64 64"><path d="M49.116 21.675c0-9.466-7.663-17.14-17.116-17.14s-17.116 7.673-17.116 17.14c0 4.142 1.467 7.94 3.909 10.903h-.025l.195.188c.343.403.702.791 1.08 1.161 1.61 1.872 4.174 5.49 4.174 9.548l1.557 1.558v10.896l5.044 4.671h2.366l5.045-4.671v-9.34h-.029v-1.557h.027l1.556-1.558c0-4.059 2.564-7.677 4.176-9.549.376-.368.733-.755 1.074-1.156l.199-.191h-.025c2.442-2.963 3.909-6.761 3.909-10.903z" fill-rule="evenodd" clip-rule="evenodd" fill="#F2CE38"/><polygon points="25.773,46.589 25.773,55.929 30.817,60.6 33.183,60.6 38.228,55.929 38.228,46.589" opacity=".9" fill-rule="evenodd" clip-rule="evenodd" fill="#80A3BA"/><defs><path id="a" d="M49.116 21.675c0-9.466-7.663-17.14-17.116-17.14s-17.116 7.673-17.116 17.14c0 4.142 1.467 7.94 3.909 10.903h-.025l.195.188c.343.403.702.791 1.08 1.161 1.61 1.872 4.174 5.49 4.174 9.548l1.557 1.558v10.896l5.044 4.671h2.366l5.045-4.671v-9.34h-.029v-1.557h.027l1.556-1.558c0-4.059 2.564-7.677 4.176-9.549.376-.368.733-.755 1.074-1.156l.199-.191h-.025c2.442-2.963 3.909-6.761 3.909-10.903z"/></defs><clipPath id="b"><use xlink:href="#a" overflow="visible"/></clipPath><polygon points="40.8,6.1 14.992,-8.8 -3.28,22.848 17.563,34.883 20.6,62 30.8,62 30.8,45.4 25.732,32.197" opacity=".25" clip-path="url(#b)" fill-rule="evenodd" clip-rule="evenodd" fill="#fff"/><defs><path id="c" d="M25.773 46.589v9.34l5.044 4.671h2.366l5.045-4.671v-9.34h-12.455z"/></defs><clipPath id="d"><use xlink:href="#c" overflow="visible"/></clipPath><g opacity=".25" clip-path="url(#d)" fill-rule="evenodd" clip-rule="evenodd" fill="#fff"><rect x="11.198" y="48.869" width="31.801" height="1.438"/><rect x="14.777" y="52.006" width="31.799" height="1.438"/><rect x="15.999" y="55.163" width="31.799" height="1.437"/></g><rect x="25.773" y="45.032" width="12.427" height="1.557" opacity=".5" fill-rule="evenodd" clip-rule="evenodd" fill="#000405"/><g opacity=".3"><defs><circle id="e" cx="31.833" cy="21.479" r="8.199" opacity=".3"/></defs><use xlink:href="#e" overflow="visible" fill="#F9F5E5"/><clipPath><use xlink:href="#e" overflow="visible"/></clipPath></g></svg>