<svg xmlns="http://www.w3.org/2000/svg" width="37.255" height="88.889" viewBox="0 0 37.255 88.889"><path d="M32.905 21.876c0-2.524-2.064-4.589-4.59-4.589h-19.784c-2.523 0-4.59 2.064-4.59 4.589v.176c0 2.523 2.065 4.589 4.59 4.589h19.784c2.523 0 4.59-2.065 4.59-4.589v-.176z" fill="#ED72A9"/><polygon points="32.905,65.048 18.426,85.003 3.941,65.048 18.426,50.489" fill="#FDC736"/><rect x="3.941" y="30.598" width="8.494" height="34.429" fill="#E54242"/><rect x="24.408" y="30.598" width="8.496" height="34.429" fill="#E54242"/><rect x="12.435" y="30.598" width="11.973" height="34.429" fill="#290C0C"/><polygon points="23.645,77.813 18.422,85.888 13.202,77.813" fill="#545454"/><path d="M34.703 23.081c0-1.011-.826-1.836-1.836-1.836h-28.891c-1.01 0-1.836.825-1.836 1.836v5.683c0 1.01.826 1.836 1.836 1.836h28.891c1.01 0 1.836-.826 1.836-1.836v-5.683z" fill="#C7C6C6"/></svg>