<svg xmlns="http://www.w3.org/2000/svg" xmlns:xlink="http://www.w3.org/1999/xlink" width="90.709" height="90.753" viewBox="-7.354 -33.626 90.709 90.753" enable-background="new -7.354 -33.626 90.709 90.753"><path d="M6 2h64c3.314 0 6-.313 6 3v38c0 3.312-2.686 6-6 6h-64c-3.313 0-6-2.688-6-6v-38c0-3.313 2.687-3 6-3z" fill="#CCB36E"/><path d="M74.819 1.972c1.564 1.029 1.564 2.698 0 3.727l-33.987 22.36c-1.563 1.029-4.101 1.029-5.664 0l-33.988-22.36c-1.564-1.029-1.564-2.698 0-3.727l33.988-22.36c1.562-1.029 4.1-1.029 5.664 0l33.987 22.36z" fill="#E6D5A8"/><defs><path id="a" d="M74.819 1.971c1.564 1.029 1.564 2.698 0 3.727l-33.987 22.36c-1.563 1.029-4.101 1.029-5.664 0l-33.988-22.36c-1.564-1.029-1.564-2.698 0-3.727l33.988-22.36c1.562-1.029 4.1-1.029 5.664 0l33.987 22.36z"/></defs><clipPath id="b"><use xlink:href="#a" overflow="visible"/></clipPath><path d="M10.646-.7h56v40h-56v-40z" clip-path="url(#b)" fill="#fff"/><path d="M24.151 24.666c.391.392.391 1.023 0 1.414l-17.798 17.799c-.391.393-1.024.393-1.414 0-.391-.389-.391-1.021 0-1.414l17.799-17.799c.389-.391 1.023-.391 1.413 0zM52.938 24.666c.39-.391 1.022-.391 1.414 0l17.799 17.799c.392.393.392 1.025 0 1.414-.392.393-1.022.393-1.414 0l-17.799-17.799c-.391-.391-.391-1.022 0-1.414z" opacity=".5"/><g fill="#bbb"><path d="M17.283 4.04h42.726c.301 0 .547.245.547.547 0 .303-.246.548-.547.548h-42.726c-.303 0-.548-.245-.548-.548 0-.302.245-.547.548-.547zM17.283 7.326h42.726c.301 0 .547.245.547.548 0 .302-.246.548-.547.548h-42.726c-.303 0-.548-.246-.548-.548 0-.303.245-.548.548-.548zM17.283 10.612h42.726c.301 0 .547.246.547.548s-.246.548-.547.548h-42.726c-.303 0-.548-.246-.548-.548s.245-.548.548-.548z"/></g></svg>