<svg xmlns="http://www.w3.org/2000/svg" xmlns:xlink="http://www.w3.org/1999/xlink" width="58.24" height="64" viewBox="0 0 58.24 64"><path d="M23 41l-14 7c-4 2-4 3-5 14h50c-1-11-1-12-5-14-12.807-6.402-14-7-14-7h-12z" fill="#5C5C53"/><defs><path id="a" d="M23 41l-14 7c-4 2-4 3-5 14h50c-1-11-1-12-5-14-12.807-6.402-14-7-14-7h-12z"/></defs><clipPath id="b"><use xlink:href="#a" overflow="visible"/></clipPath><polygon points="29,63 3.916,63 4,44.467 11.916,44.467 29,54.33" opacity=".3" enable-background="new" clip-path="url(#b)"/><path d="M29 52c-7-3.029-8-6-8-10v-8h16v8c0 4-1 6.971-8 10z" fill="#85DED8"/><defs><path id="c" d="M29 52c-7-3.029-8-6-8-10v-8h16v8c0 4-1 6.971-8 10z"/></defs><clipPath id="d"><use xlink:href="#c" overflow="visible"/></clipPath><polygon points="22.352,41.324 40.346,30.936 40.363,30.907 40.363,51.686 31.365,46.49 31.35,46.52" fill="#231F20" opacity=".15" clip-path="url(#d)"/><defs><path id="e" d="M29 52c-7-3.029-8-6-8-10v-8h16v8c0 4-1 6.971-8 10z"/></defs><clipPath id="f"><use xlink:href="#e" overflow="visible"/></clipPath><rect x="20.166" y="35" width="18.168" height="19.668" fill="#231F20" opacity=".15" clip-path="url(#f)"/><path d="M29 9c10.344 0 13 8.442 13 14v7c0 5.861-5.553 13.5-13 13.5-7.448 0-13-7.637-13-13.5v-8c0-5.558 2.655-13 13-13z" fill="#85DED8"/><defs><path id="g" d="M29 9c10.344 0 13 8.442 13 14v7c0 5.861-5.553 13.5-13 13.5-7.448 0-13-7.637-13-13.5v-8c0-5.558 2.655-13 13-13z"/></defs><clipPath><use xlink:href="#g" overflow="visible"/></clipPath><defs><path id="h" d="M29 9c10.344 0 13 8.442 13 14v7c0 5.861-5.553 13.5-13 13.5-7.448 0-13-7.637-13-13.5v-8c0-5.558 2.655-13 13-13z"/></defs><clipPath><use xlink:href="#h" overflow="visible"/></clipPath><defs><path id="i" d="M29 9c10.344 0 13 8.442 13 14v7c0 5.861-5.553 13.5-13 13.5-7.448 0-13-7.637-13-13.5v-8c0-5.558 2.655-13 13-13z"/></defs><clipPath id="j"><use xlink:href="#i" overflow="visible"/></clipPath><g clip-path="url(#j)"><polygon points="42.425,16.58 29,24.331 29,34.33 29,44 43,44" opacity=".15" fill="#231F20" enable-background="new"/><polygon points="29,24.331 29,9 16,9 16,26.825 29,34.33" opacity=".3" fill="#fff" enable-background="new"/></g><ellipse cx="34.5" cy="26" rx="1.5" ry="2" fill="#231F20" fill-opacity=".6"/><ellipse cx="23.5" cy="26" rx="1.5" ry="2" fill="#231F20" fill-opacity=".6"/></svg>