<svg xmlns="http://www.w3.org/2000/svg" xmlns:xlink="http://www.w3.org/1999/xlink" width="76.095" height="90.753" viewBox="0 0 76.095 90.753"><path d="M9.723 41.712h57.263c2.965 0 5.368-.28 5.368 2.684v34c0 2.964-2.403 5.368-5.368 5.368h-57.263c-2.964 0-5.369-2.404-5.369-5.368v-34c0-2.964 2.405-2.684 5.369-2.684z" fill="#CCB36E"/><path d="M71.298 41.687c1.399.92 1.399 2.414 0 3.335l-30.41 20.006c-1.398.921-3.668.921-5.067 0l-30.41-20.006c-1.399-.921-1.399-2.415 0-3.335l30.41-20.006c1.397-.921 3.668-.921 5.067 0l30.41 20.006z" fill="#E6D5A8"/><defs><path id="a" d="M71.298 41.686c1.399.921 1.399 2.414 0 3.335l-30.41 20.006c-1.398.921-3.668.921-5.067 0l-30.41-20.006c-1.399-.921-1.399-2.414 0-3.335l30.41-20.006c1.397-.92 3.668-.92 5.067 0l30.41 20.006z"/></defs><clipPath id="b"><use xlink:href="#a" overflow="visible"/></clipPath><path d="M13.88 39.296h50.104v35.79h-50.104v-35.79z" clip-path="url(#b)" fill="#fff"/><path d="M25.963 61.992c.35.352.35.916 0 1.266l-15.924 15.925c-.35.352-.916.352-1.265 0-.35-.348-.35-.914 0-1.266l15.925-15.926c.348-.349.916-.349 1.264.001zM51.721 61.992c.349-.35.914-.35 1.265 0l15.926 15.926c.351.352.351.918 0 1.266-.352.352-.915.352-1.266 0l-15.925-15.927c-.351-.349-.351-.914 0-1.265z" opacity=".5" enable-background="new"/><g fill="#bbb"><path d="M19.818 43.537h38.229c.269 0 .489.219.489.489 0 .271-.221.49-.489.49h-38.229c-.271 0-.491-.219-.491-.49.001-.27.22-.489.491-.489zM19.818 46.478h38.229c.269 0 .489.219.489.49 0 .27-.221.49-.489.49h-38.229c-.271 0-.491-.221-.491-.49.001-.271.22-.49.491-.49zM19.818 49.417h38.229c.269 0 .489.221.489.49s-.221.49-.489.49h-38.229c-.271 0-.491-.221-.491-.49s.22-.49.491-.49z"/></g></svg>