<svg xmlns="http://www.w3.org/2000/svg" xmlns:xlink="http://www.w3.org/1999/xlink" width="61" height="75.25" viewBox="0 0 61 75.25"><defs><path id="a" d="M58.646 68.021c0 2-1.621 3.619-3.619 3.619h-48.243c-1.998 0-3.618-1.619-3.618-3.619l-.004-54.273c0-1.998 1.621-3.618 3.618-3.618h48.243c1.999 0 3.619 1.621 3.619 3.618l.004 54.273z"/></defs><use xlink:href="#a" overflow="visible" fill="#94684E"/><clipPath id="b"><use xlink:href="#a" overflow="visible"/></clipPath><polygon points="50.512,16.663 10.88,63.767 16.091,72.793 59.852,72.847 59.852,32.84" clip-path="url(#b)" fill="#231F20" fill-opacity=".3"/><defs><path id="c" d="M14.024 65.609c-1.998 0-3.618-1.619-3.618-3.617l-.004-43.42c0-1.999 1.621-3.618 3.619-3.618h33.419c1.998 0 3.617 1.619 3.617 3.617l.004 26.751-11.713 20.287h-25.324z"/></defs><use xlink:href="#c" overflow="visible" fill="#DEDCD9"/><clipPath id="d"><use xlink:href="#c" overflow="visible"/></clipPath><polygon points="52.611,14.954 7.987,14.954 7.99,68.021 52.615,42.258" clip-path="url(#d)" fill="#fff" fill-opacity=".5"/><path d="M45.379 27.015h-28.947v-2.412h28.947v2.412zm0 7.237h-28.947v2.412h28.947v-2.412zm0 9.648h-28.947v2.412h28.947v-2.412zm0 9.649h-28.946l-.001 2.412h28.947v-2.412z" fill="#231F20" fill-opacity=".3"/><path d="M35.305 58.598l4.043 7.012 11.724-20.28-14.439 8.326c-1.733.998-2.326 3.21-1.328 4.942z" fill="#DEDCD9"/><path d="M35.305 58.598l4.043 7.012 11.724-20.28-14.439 8.326c-1.733.998-2.326 3.21-1.328 4.942z" opacity=".5" fill="#fff"/><defs><path id="e" d="M30.906 1.687c-3.33 0-6.031 2.7-6.031 6.031v6.03h12.061v-6.03c0-3.331-2.7-6.031-6.03-6.031zm-.004 8.443c-1.332 0-2.412-1.079-2.412-2.412s1.08-2.413 2.412-2.413c1.333 0 2.412 1.08 2.412 2.413s-1.079 2.412-2.412 2.412z"/></defs><use xlink:href="#e" overflow="visible" fill-rule="evenodd" clip-rule="evenodd" fill="#BCBEC0"/><clipPath id="f"><use xlink:href="#e" overflow="visible"/></clipPath><path d="M24.875 11.336c0-3.33 2.701-6.031 6.031-6.031h6.029v-3.618h-12.06v9.649z" clip-path="url(#f)" fill-rule="evenodd" clip-rule="evenodd" fill="#fff" fill-opacity=".3"/><defs><path id="g" d="M44.574 12.542h-27.338c-1.333 0-3.216 1.465-3.216 3.141v2.89h33.771v-2.89c0-1.676-1.885-3.141-3.217-3.141z"/></defs><use xlink:href="#g" overflow="visible" fill="#BCBEC0"/><clipPath id="h"><use xlink:href="#g" overflow="visible"/></clipPath><path d="M14.021 15.683c0-1.676 1.883-3.141 3.216-3.141h31.762v2.412h-31.762c-1.333 0-3.217 1.465-3.217 3.141l.001-2.412z" clip-path="url(#h)" fill-rule="evenodd" clip-rule="evenodd" fill="#fff" fill-opacity=".3"/></svg>