<svg xmlns="http://www.w3.org/2000/svg" xmlns:xlink="http://www.w3.org/1999/xlink" width="38.276" height="64" viewBox="0 0 38.276 64"><path d="M35.387 25.393c0-9.062-7.336-16.409-16.387-16.409-9.05 0-16.387 7.346-16.387 16.409 0 3.965 1.405 7.602 3.742 10.439h-.023l.187.18c.329.386.672.757 1.034 1.111 1.542 1.792 3.996 5.256 3.996 9.141l1.491 1.492v10.431999999999999l4.829 4.471h2.265l4.83-4.471v-8.942h-.027v-1.49h.025l1.49-1.491c0-3.887 2.455-7.351 3.998-9.143.359-.353.701-.723 1.028-1.106l.19-.183h-.023c2.336-2.838 3.742-6.475 3.742-10.44z" fill="#F2CE38"/><polygon points="13.038,49.245 13.038,58.188 17.867,62.658 20.133,62.658 24.963,58.188 24.963,49.245" opacity=".9" fill="#80A3BA" enable-background="new"/><defs><path id="a" d="M35.387 25.393c0-9.062-7.336-16.409-16.387-16.409-9.05 0-16.387 7.346-16.387 16.409 0 3.965 1.405 7.602 3.742 10.439h-.023l.187.18c.329.386.672.757 1.034 1.111 1.542 1.792 3.996 5.256 3.996 9.141l1.491 1.492v10.431999999999999l4.829 4.471h2.265l4.83-4.471v-8.942h-.027v-1.49h.025l1.49-1.491c0-3.887 2.455-7.351 3.998-9.143.359-.353.701-.723 1.028-1.106l.19-.183h-.023c2.336-2.838 3.742-6.475 3.742-10.44z"/></defs><clipPath id="b"><use xlink:href="#a" overflow="visible"/></clipPath><polygon points="27.425,10.482 2.717,-3.783 -14.776,26.516 5.178,38.038 8.086,64 17.851,64 17.851,48.107 12.999,35.467" opacity=".25" clip-path="url(#b)" fill="#fff" enable-background="new"/><defs><polygon id="c" points="13.038,49.245 13.038,58.188 17.867,62.658 20.133,62.658 24.963,58.188 24.963,49.245"/></defs><clipPath id="d"><use xlink:href="#c" overflow="visible"/></clipPath><g opacity=".25" clip-path="url(#d)" fill="#fff"><rect x="-.916" y="51.428" width="30.446" height="1.377"/><rect x="2.511" y="54.432" width="30.444" height="1.376"/><rect x="3.681" y="57.454" width="30.444" height="1.375"/></g><rect x="13.038" y="47.755" width="11.897" height="1.49" opacity=".5" fill="#000405" enable-background="new"/><circle cx="18.84" cy="25.205" r="7.849" opacity=".3" fill="#F9F5E5" enable-background="new"/></svg>