<svg xmlns="http://www.w3.org/2000/svg" xmlns:xlink="http://www.w3.org/1999/xlink" width="64" height="64" viewBox="0 0 64 64"><path d="M26 38l-14 7c-4 2-4 3-5 14h50c-1-11-1-12-5-14-12.807-6.403-14-7-14-7h-12z" fill="#5C5C53"/><defs><path id="a" d="M26 38l-14 7c-4 2-4 3-5 14h50c-1-11-1-12-5-14-12.807-6.403-14-7-14-7h-12z"/></defs><clipPath id="b"><use xlink:href="#a" overflow="visible"/></clipPath><polygon points="32,60 6.916,60 7,41.467 14.916,41.467 32,51.33" opacity=".3" clip-path="url(#b)"/><defs><path id="c" d="M32 49c-7-3.029-8-6-8-10v-8h16v8c0 4-1 6.971-8 10z"/></defs><use xlink:href="#c" overflow="visible" fill-rule="evenodd" clip-rule="evenodd" fill="#85DED8"/><clipPath id="d"><use xlink:href="#c" overflow="visible"/></clipPath><polygon points="25.352,38.324 43.346,27.936 43.363,27.907 43.363,48.685 34.365,43.49 34.35,43.519" fill="#231F20" opacity=".15" clip-path="url(#d)"/><rect x="23.166" y="32" width="18.168" height="19.668" fill="#231F20" opacity=".15" clip-path="url(#d)"/><defs><path id="e" d="M32 6c10.344 0 13 8.442 13 14v7c0 5.862-5.552 13.5-13 13.5s-13-7.637-13-13.5v-8c0-5.558 2.655-13 13-13z"/></defs><use xlink:href="#e" overflow="visible" fill-rule="evenodd" clip-rule="evenodd" fill="#85DED8"/><clipPath id="f"><use xlink:href="#e" overflow="visible"/></clipPath><g clip-path="url(#f)"><polygon points="45.425,13.58 32,21.331 32,31.33 32,41 46,41" opacity=".15" fill="#231F20"/><polygon points="32,21.331 32,6 19,6 19,23.825 32,31.33" opacity=".3" fill="#fff"/></g><ellipse cx="37.5" cy="23" rx="1.5" ry="2" fill="#231F20" fill-opacity=".6"/><ellipse cx="26.5" cy="23" rx="1.5" ry="2" fill="#231F20" fill-opacity=".6"/></svg>