<svg xmlns="http://www.w3.org/2000/svg" width="88.844" height="88.888" viewBox="66.915 -35.296 88.844 88.888" enable-background="new 66.915 -35.296 88.844 88.888"><path d="M125.819-30.149c0-2.524-2.065-4.589-4.59-4.589h-19.783c-2.524 0-4.59 2.065-4.59 4.589v.176c0 2.524 2.065 4.589 4.59 4.589h19.783c2.524 0 4.59-2.065 4.59-4.589v-.176z" fill="#ED72A9"/><polygon points="125.819,13.023 111.34,32.978 96.856,13.023 111.34,-1.535" fill="#FDC736"/><rect x="96.856" y="-21.426" width="8.494" height="34.429" fill="#E54242"/><rect x="117.323" y="-21.426" width="8.496" height="34.429" fill="#E54242"/><rect x="105.35" y="-21.426" width="11.973" height="34.429" fill="#290C0C"/><polygon points="116.559,25.789 111.336,33.864 106.116,25.789" fill="#545454"/><path d="M127.618-28.944c0-1.01-.826-1.836-1.836-1.836h-28.891c-1.01 0-1.836.826-1.836 1.836v5.683c0 1.01.826 1.836 1.836 1.836h28.891c1.01 0 1.836-.826 1.836-1.836v-5.683z" fill="#C7C6C6"/></svg>