<?xml version="1.0" encoding="iso-8859-1"?>
<!-- Generator: Adobe Illustrator 16.0.0, SVG Export Plug-In . SVG Version: 6.00 Build 0)  -->
<!DOCTYPE svg PUBLIC "-//W3C//DTD SVG 1.1//EN" "http://www.w3.org/Graphics/SVG/1.1/DTD/svg11.dtd">
<svg version="1.1" id="Layer_1" xmlns="http://www.w3.org/2000/svg" xmlns:xlink="http://www.w3.org/1999/xlink" x="0px" y="0px"
	 width="27.333px" height="26.884px" viewBox="0 0 27.333 26.884" style="enable-background:new 0 0 27.333 26.884;"
	 xml:space="preserve">
<path style="fill:#AAAAAA;" d="M6.683,25.798c-0.244,0.244-0.64,0.243-0.884,0l-4.615-4.616c-0.244-0.244-0.245-0.64,0-0.884
	L20.297,1.183c0.243-0.243,0.64-0.243,0.885,0L25.797,5.8c0.244,0.244,0.244,0.64,0,0.883L6.683,25.798z"/>
<path style="fill:#AAAAAA;" d="M25.798,20.298c0.244,0.244,0.243,0.64,0,0.884l-4.616,4.615c-0.244,0.244-0.64,0.245-0.884,0
	L1.183,6.683c-0.243-0.243-0.243-0.64,0-0.885L5.8,1.183c0.244-0.244,0.64-0.244,0.883,0L25.798,20.298z"/>
</svg>
