<?xml version="1.0" encoding="iso-8859-1"?>
<!-- Generator: Adobe Illustrator 16.0.0, SVG Export Plug-In . SVG Version: 6.00 Build 0)  -->
<!DOCTYPE svg PUBLIC "-//W3C//DTD SVG 1.1//EN" "http://www.w3.org/Graphics/SVG/1.1/DTD/svg11.dtd">
<svg version="1.1" id="Layer_1" xmlns="http://www.w3.org/2000/svg" xmlns:xlink="http://www.w3.org/1999/xlink" x="0px" y="0px"
	 width="64px" height="64px" viewBox="0 0 64 64" style="enable-background:new 0 0 64 64;" xml:space="preserve">
<path style="fill:#5C5C53;" d="M26,38c0,0-2,1-14,7c-4,2-4,3-5,14h50c-1-11-1-12-5-14c-12.807-6.403-14-7-14-7H26z"/>
<g>
	<defs>
		<path id="SVGID_1_" d="M26,38c0,0-2,1-14,7c-4,2-4,3-5,14h50c-1-11-1-12-5-14c-12.807-6.403-14-7-14-7H26z"/>
	</defs>
	<clipPath id="SVGID_2_">
		<use xlink:href="#SVGID_1_"  style="overflow:visible;"/>
	</clipPath>
	<g style="clip-path:url(#SVGID_2_);">
		<polygon style="opacity:0.3;" points="32,60 6.916,60 7,41.467 14.916,41.467 32,51.33 		"/>
	</g>
</g>
<g>
	<defs>
		<path id="SVGID_3_" d="M32,49c-7-3.029-8-6-8-10c0-6,0-8,0-8h16c0,0,0,5,0,8C40,43,39,45.971,32,49z"/>
	</defs>
	<use xlink:href="#SVGID_3_"  style="overflow:visible;fill-rule:evenodd;clip-rule:evenodd;fill:#85DED8;"/>
	<clipPath id="SVGID_4_">
		<use xlink:href="#SVGID_3_"  style="overflow:visible;"/>
	</clipPath>
	<g style="opacity:0.15;clip-path:url(#SVGID_4_);">
		<polygon style="fill:#231F20;" points="25.352,38.324 43.346,27.936 43.363,27.907 43.363,48.685 34.365,43.49 34.35,43.519 		"/>
	</g>
	<g style="opacity:0.15;clip-path:url(#SVGID_4_);">
		<rect x="23.166" y="32" style="fill:#231F20;" width="18.168" height="19.668"/>
	</g>
</g>
<g>
	<defs>
		<path id="SVGID_5_" d="M32,6c10.344,0,13,8.442,13,14c0,2,0,4,0,7c0,5.862-5.552,13.5-13,13.5S19,32.863,19,27c0-3,0-6,0-8
			C19,13.442,21.655,6,32,6z"/>
	</defs>
	<use xlink:href="#SVGID_5_"  style="overflow:visible;fill-rule:evenodd;clip-rule:evenodd;fill:#85DED8;"/>
	<clipPath id="SVGID_6_">
		<use xlink:href="#SVGID_5_"  style="overflow:visible;"/>
	</clipPath>
	<g style="display:none;clip-path:url(#SVGID_6_);">
		<rect x="19" y="6" style="display:inline;opacity:0.15;fill:#FFFFFF;" width="13" height="35"/>
	</g>
	<g style="display:none;clip-path:url(#SVGID_6_);">
		<polygon style="display:inline;opacity:0.15;fill:#231F20;" points="8,41 46,41 45.425,13.58 32,21.33 32,31.33 7.999,17.474 		
			"/>
	</g>
	<g style="clip-path:url(#SVGID_6_);">
		<g>
			<polygon style="opacity:0.15;fill:#231F20;" points="45.425,13.58 32,21.331 32,31.33 32,41 46,41 			"/>
		</g>
		<g>
			<polygon style="opacity:0.3;fill:#FFFFFF;" points="32,21.331 32,6 19,6 19,23.825 32,31.33 			"/>
		</g>
	</g>
</g>
<ellipse style="fill:#231F20;fill-opacity:0.6;" cx="37.5" cy="23" rx="1.5" ry="2"/>
<ellipse style="fill:#231F20;fill-opacity:0.6;" cx="26.5" cy="23" rx="1.5" ry="2"/>
</svg>
