<?xml version="1.0" encoding="iso-8859-1"?>
<!-- Generator: Adobe Illustrator 16.0.0, SVG Export Plug-In . SVG Version: 6.00 Build 0)  -->
<!DOCTYPE svg PUBLIC "-//W3C//DTD SVG 1.1//EN" "http://www.w3.org/Graphics/SVG/1.1/DTD/svg11.dtd">
<svg version="1.1" id="Layer_1" xmlns="http://www.w3.org/2000/svg" xmlns:xlink="http://www.w3.org/1999/xlink" x="0px" y="0px"
	 width="90.709px" height="90.753px" viewBox="-7.354 -33.626 90.709 90.753"
	 style="enable-background:new -7.354 -33.626 90.709 90.753;" xml:space="preserve">
<path style="fill:#CCB36E;" d="M6,2h64c3.314,0,6-0.313,6,3v38c0,3.312-2.686,6-6,6H6c-3.313,0-6-2.688-6-6V5C0,1.687,2.687,2,6,2z"
	/>
<path style="fill:#E6D5A8;" d="M74.819,1.972c1.564,1.029,1.564,2.698,0,3.727l-33.987,22.36c-1.563,1.029-4.101,1.029-5.664,0
	L1.18,5.699c-1.564-1.029-1.564-2.698,0-3.727l33.988-22.36c1.562-1.029,4.1-1.029,5.664,0L74.819,1.972z"/>
<g>
	<defs>
		<path id="SVGID_1_" d="M74.819,1.971c1.564,1.029,1.564,2.698,0,3.727l-33.987,22.36c-1.563,1.029-4.101,1.029-5.664,0L1.18,5.698
			C-0.384,4.669-0.384,3,1.18,1.971l33.988-22.36c1.562-1.029,4.1-1.029,5.664,0L74.819,1.971z"/>
	</defs>
	<clipPath id="SVGID_2_">
		<use xlink:href="#SVGID_1_"  style="overflow:visible;"/>
	</clipPath>
	<path style="clip-path:url(#SVGID_2_);fill:#FFFFFF;" d="M10.646-0.7h56v40h-56V-0.7z"/>
</g>
<path style="opacity:0.5;" d="M24.151,24.666c0.391,0.392,0.391,1.023,0,1.414L6.353,43.879c-0.391,0.393-1.024,0.393-1.414,0
	c-0.391-0.389-0.391-1.021,0-1.414l17.799-17.799C23.127,24.275,23.761,24.275,24.151,24.666z"/>
<path style="opacity:0.5;" d="M52.938,24.666c0.39-0.391,1.022-0.391,1.414,0l17.799,17.799c0.392,0.393,0.392,1.025,0,1.414
	c-0.392,0.393-1.022,0.393-1.414,0L52.938,26.08C52.547,25.689,52.547,25.058,52.938,24.666z"/>
<g>
	<path style="fill:#BBBBBB;" d="M17.283,4.04h42.726c0.301,0,0.547,0.245,0.547,0.547c0,0.303-0.246,0.548-0.547,0.548H17.283
		c-0.303,0-0.548-0.245-0.548-0.548C16.735,4.285,16.98,4.04,17.283,4.04z"/>
	<path style="fill:#BBBBBB;" d="M17.283,7.326h42.726c0.301,0,0.547,0.245,0.547,0.548c0,0.302-0.246,0.548-0.547,0.548H17.283
		c-0.303,0-0.548-0.246-0.548-0.548C16.735,7.571,16.98,7.326,17.283,7.326z"/>
	<path style="fill:#BBBBBB;" d="M17.283,10.612h42.726c0.301,0,0.547,0.246,0.547,0.548s-0.246,0.548-0.547,0.548H17.283
		c-0.303,0-0.548-0.246-0.548-0.548S16.98,10.612,17.283,10.612z"/>
</g>
</svg>
