<?xml version="1.0" encoding="iso-8859-1"?>
<!-- Generator: Adobe Illustrator 16.0.0, SVG Export Plug-In . SVG Version: 6.00 Build 0)  -->
<!DOCTYPE svg PUBLIC "-//W3C//DTD SVG 1.1//EN" "http://www.w3.org/Graphics/SVG/1.1/DTD/svg11.dtd">
<svg version="1.1" id="Layer_1" xmlns="http://www.w3.org/2000/svg" xmlns:xlink="http://www.w3.org/1999/xlink" x="0px" y="0px"
	 width="58.24px" height="64px" viewBox="0 0 58.24 64" style="enable-background:new 0 0 58.24 64;" xml:space="preserve">
<path style="fill:#5C5C53;" d="M23,41c0,0-2,1-14,7c-4,2-4,3-5,14h50c-1-11-1-12-5-14c-12.807-6.402-14-7-14-7H23z"/>
<g>
	<g>
		<defs>
			<path id="SVGID_1_" d="M23,41c0,0-2,1-14,7c-4,2-4,3-5,14h50c-1-11-1-12-5-14c-12.807-6.402-14-7-14-7H23z"/>
		</defs>
		<clipPath id="SVGID_2_">
			<use xlink:href="#SVGID_1_"  style="overflow:visible;"/>
		</clipPath>
		<g style="clip-path:url(#SVGID_2_);">
			<polygon style="opacity:0.3;enable-background:new    ;" points="29,63 3.916,63 4,44.467 11.916,44.467 29,54.33 			"/>
		</g>
	</g>
</g>
<g>
	<g>
		<path id="SVGID_3_" style="fill:#85DED8;" d="M29,52c-7-3.029-8-6-8-10c0-6,0-8,0-8h16c0,0,0,5,0,8C37,46,36,48.971,29,52z"/>
	</g>
	<g>
		<defs>
			<path id="SVGID_4_" d="M29,52c-7-3.029-8-6-8-10c0-6,0-8,0-8h16c0,0,0,5,0,8C37,46,36,48.971,29,52z"/>
		</defs>
		<clipPath id="SVGID_6_">
			<use xlink:href="#SVGID_4_"  style="overflow:visible;"/>
		</clipPath>
		<g style="opacity:0.15;clip-path:url(#SVGID_6_);">
			<polygon style="fill:#231F20;" points="22.352,41.324 40.346,30.936 40.363,30.907 40.363,51.686 31.365,46.49 31.35,46.52 			
				"/>
		</g>
	</g>
	<g>
		<defs>
			<path id="SVGID_7_" d="M29,52c-7-3.029-8-6-8-10c0-6,0-8,0-8h16c0,0,0,5,0,8C37,46,36,48.971,29,52z"/>
		</defs>
		<clipPath id="SVGID_8_">
			<use xlink:href="#SVGID_7_"  style="overflow:visible;"/>
		</clipPath>
		<g style="opacity:0.15;clip-path:url(#SVGID_8_);">
			<rect x="20.166" y="35" style="fill:#231F20;" width="18.168" height="19.668"/>
		</g>
	</g>
</g>
<g>
	<g>
		<path id="SVGID_5_" style="fill:#85DED8;" d="M29,9c10.344,0,13,8.442,13,14c0,2,0,4,0,7c0,5.861-5.553,13.5-13,13.5
			c-7.448,0-13-7.637-13-13.5c0-3,0-6,0-8C16,16.442,18.655,9,29,9z"/>
	</g>
	<g>
		<defs>
			<path id="SVGID_9_" d="M29,9c10.344,0,13,8.442,13,14c0,2,0,4,0,7c0,5.861-5.553,13.5-13,13.5c-7.448,0-13-7.637-13-13.5
				c0-3,0-6,0-8C16,16.442,18.655,9,29,9z"/>
		</defs>
		<clipPath id="SVGID_10_">
			<use xlink:href="#SVGID_9_"  style="overflow:visible;"/>
		</clipPath>
		<g style="display:none;clip-path:url(#SVGID_10_);">
			<rect x="16" y="9" style="display:inline;opacity:0.15;fill:#FFFFFF;enable-background:new    ;" width="13" height="35"/>
		</g>
	</g>
	<g>
		<defs>
			<path id="SVGID_11_" d="M29,9c10.344,0,13,8.442,13,14c0,2,0,4,0,7c0,5.861-5.553,13.5-13,13.5c-7.448,0-13-7.637-13-13.5
				c0-3,0-6,0-8C16,16.442,18.655,9,29,9z"/>
		</defs>
		<clipPath id="SVGID_12_">
			<use xlink:href="#SVGID_11_"  style="overflow:visible;"/>
		</clipPath>
		<g style="display:none;clip-path:url(#SVGID_12_);">
			<polygon style="display:inline;opacity:0.15;fill:#231F20;enable-background:new    ;" points="5,44 43,44 42.425,16.58 
				29,24.33 29,34.33 4.999,20.474 			"/>
		</g>
	</g>
	<g>
		<defs>
			<path id="SVGID_13_" d="M29,9c10.344,0,13,8.442,13,14c0,2,0,4,0,7c0,5.861-5.553,13.5-13,13.5c-7.448,0-13-7.637-13-13.5
				c0-3,0-6,0-8C16,16.442,18.655,9,29,9z"/>
		</defs>
		<clipPath id="SVGID_14_">
			<use xlink:href="#SVGID_13_"  style="overflow:visible;"/>
		</clipPath>
		<g style="clip-path:url(#SVGID_14_);">
			<g>
				<polygon style="opacity:0.15;fill:#231F20;enable-background:new    ;" points="42.425,16.58 29,24.331 29,34.33 29,44 43,44 
									"/>
			</g>
			<g>
				<polygon style="opacity:0.3;fill:#FFFFFF;enable-background:new    ;" points="29,24.331 29,9 16,9 16,26.825 29,34.33 				"/>
			</g>
		</g>
	</g>
</g>
<ellipse style="fill:#231F20;fill-opacity:0.6;" cx="34.5" cy="26" rx="1.5" ry="2"/>
<ellipse style="fill:#231F20;fill-opacity:0.6;" cx="23.5" cy="26" rx="1.5" ry="2"/>
</svg>
