<?xml version="1.0" encoding="iso-8859-1"?>
<!-- Generator: Adobe Illustrator 16.0.0, SVG Export Plug-In . SVG Version: 6.00 Build 0)  -->
<!DOCTYPE svg PUBLIC "-//W3C//DTD SVG 1.1//EN" "http://www.w3.org/Graphics/SVG/1.1/DTD/svg11.dtd">
<svg version="1.1" id="Layer_1" xmlns="http://www.w3.org/2000/svg" xmlns:xlink="http://www.w3.org/1999/xlink" x="0px" y="0px"
	 width="37.255px" height="88.889px" viewBox="0 0 37.255 88.889" style="enable-background:new 0 0 37.255 88.889;"
	 xml:space="preserve">
<g>
	<g>
		<path style="fill:#ED72A9;" d="M32.905,21.876c0-2.524-2.064-4.589-4.59-4.589H8.531c-2.523,0-4.59,2.064-4.59,4.589v0.176
			c0,2.523,2.065,4.589,4.59,4.589h19.784c2.523,0,4.59-2.065,4.59-4.589V21.876z"/>
	</g>
	<polygon style="fill:#FDC736;" points="32.905,65.048 18.426,85.003 3.941,65.048 18.426,50.489 	"/>
	<g>
		<rect x="3.941" y="30.598" style="fill:#E54242;" width="8.494" height="34.429"/>
		<rect x="24.408" y="30.598" style="fill:#E54242;" width="8.496" height="34.429"/>
		<rect x="12.435" y="30.598" style="fill:#290C0C;" width="11.973" height="34.429"/>
	</g>
	<polygon style="fill:#545454;" points="23.645,77.813 18.422,85.888 13.202,77.813 	"/>
	<g>
		<path style="fill:#C7C6C6;" d="M34.703,23.081c0-1.011-0.826-1.836-1.836-1.836H3.976c-1.01,0-1.836,0.825-1.836,1.836v5.683
			c0,1.01,0.826,1.836,1.836,1.836h28.891c1.01,0,1.836-0.826,1.836-1.836V23.081z"/>
	</g>
</g>
</svg>
