<?xml version="1.0" encoding="iso-8859-1"?>
<!-- Generator: Adobe Illustrator 16.0.0, SVG Export Plug-In . SVG Version: 6.00 Build 0)  -->
<!DOCTYPE svg PUBLIC "-//W3C//DTD SVG 1.1//EN" "http://www.w3.org/Graphics/SVG/1.1/DTD/svg11.dtd">
<svg version="1.1" id="Layer_1" xmlns="http://www.w3.org/2000/svg" xmlns:xlink="http://www.w3.org/1999/xlink" x="0px" y="0px"
	 width="88.844px" height="88.888px" viewBox="66.915 -35.296 88.844 88.888"
	 style="enable-background:new 66.915 -35.296 88.844 88.888;" xml:space="preserve">
<g>
	<g>
		<path style="fill:#ED72A9;" d="M125.819-30.149c0-2.524-2.065-4.589-4.59-4.589h-19.783c-2.524,0-4.59,2.065-4.59,4.589v0.176
			c0,2.524,2.065,4.589,4.59,4.589h19.783c2.524,0,4.59-2.065,4.59-4.589V-30.149z"/>
	</g>
	<polygon style="fill:#FDC736;" points="125.819,13.023 111.34,32.978 96.856,13.023 111.34,-1.535 	"/>
	<g>
		<rect x="96.856" y="-21.426" style="fill:#E54242;" width="8.494" height="34.429"/>
		<rect x="117.323" y="-21.426" style="fill:#E54242;" width="8.496" height="34.429"/>
		<rect x="105.35" y="-21.426" style="fill:#290C0C;" width="11.973" height="34.429"/>
	</g>
	<polygon style="fill:#545454;" points="116.559,25.789 111.336,33.864 106.116,25.789 	"/>
	<g>
		<path style="fill:#C7C6C6;" d="M127.618-28.944c0-1.01-0.826-1.836-1.836-1.836H96.891c-1.01,0-1.836,0.826-1.836,1.836v5.683
			c0,1.01,0.826,1.836,1.836,1.836h28.891c1.01,0,1.836-0.826,1.836-1.836V-28.944z"/>
	</g>
</g>
</svg>
