<?xml version="1.0" encoding="iso-8859-1"?>
<!-- Generator: Adobe Illustrator 16.0.0, SVG Export Plug-In . SVG Version: 6.00 Build 0)  -->
<!DOCTYPE svg PUBLIC "-//W3C//DTD SVG 1.1//EN" "http://www.w3.org/Graphics/SVG/1.1/DTD/svg11.dtd">
<svg version="1.1" id="Layer_1" xmlns="http://www.w3.org/2000/svg" xmlns:xlink="http://www.w3.org/1999/xlink" x="0px" y="0px"
	 width="64px" height="64px" viewBox="0 0 64 64" style="enable-background:new 0 0 64 64;" xml:space="preserve">
<path id="base" style="fill-rule:evenodd;clip-rule:evenodd;fill:#F2CE38;" d="M49.116,21.675c0-9.466-7.663-17.14-17.116-17.14
	s-17.116,7.673-17.116,17.14c0,4.142,1.467,7.94,3.909,10.903h-0.025c0,0,0.076,0.07,0.195,0.188
	c0.343,0.403,0.702,0.791,1.08,1.161c1.61,1.872,4.174,5.49,4.174,9.548l1.557,1.558v1.557V47.6v8.329l5.044,4.671h2.366
	l5.045-4.671v-9.34H38.2v-1.557h0.027l1.556-1.558c0-4.059,2.564-7.677,4.176-9.549c0.376-0.368,0.733-0.755,1.074-1.156
	c0.122-0.12,0.199-0.191,0.199-0.191h-0.025C47.649,29.615,49.116,25.817,49.116,21.675z"/>
<polygon style="opacity:0.9;fill-rule:evenodd;clip-rule:evenodd;fill:#80A3BA;" points="25.773,46.589 25.773,55.929 30.817,60.6 
	33.183,60.6 38.228,55.929 38.228,46.589 "/>
<g>
	<defs>
		<path id="base_1_" d="M49.116,21.675c0-9.466-7.663-17.14-17.116-17.14s-17.116,7.673-17.116,17.14
			c0,4.142,1.467,7.94,3.909,10.903h-0.025c0,0,0.076,0.07,0.195,0.188c0.343,0.403,0.702,0.791,1.08,1.161
			c1.61,1.872,4.174,5.49,4.174,9.548l1.557,1.558v1.557V47.6v8.329l5.044,4.671h2.366l5.045-4.671v-9.34H38.2v-1.557h0.027
			l1.556-1.558c0-4.059,2.564-7.677,4.176-9.549c0.376-0.368,0.733-0.755,1.074-1.156c0.122-0.12,0.199-0.191,0.199-0.191h-0.025
			C47.649,29.615,49.116,25.817,49.116,21.675z"/>
	</defs>
	<clipPath id="base_2_">
		<use xlink:href="#base_1_"  style="overflow:visible;"/>
	</clipPath>
	<polygon style="opacity:0.25;clip-path:url(#base_2_);fill-rule:evenodd;clip-rule:evenodd;fill:#FFFFFF;" points="40.8,6.1 
		14.992,-8.8 -3.28,22.848 17.563,34.883 20.6,62 30.8,62 30.8,45.4 25.732,32.197 	"/>
</g>
<g>
	<defs>
		<path id="SVGID_1_" d="M25.773,46.589v9.34l5.044,4.671h2.366l5.045-4.671v-9.34H25.773z"/>
	</defs>
	<clipPath id="SVGID_2_">
		<use xlink:href="#SVGID_1_"  style="overflow:visible;"/>
	</clipPath>
	<g style="opacity:0.25;clip-path:url(#SVGID_2_);">
		<rect x="11.198" y="48.869" style="fill-rule:evenodd;clip-rule:evenodd;fill:#FFFFFF;" width="31.801" height="1.438"/>
		<rect x="14.777" y="52.006" style="fill-rule:evenodd;clip-rule:evenodd;fill:#FFFFFF;" width="31.799" height="1.438"/>
		<rect x="15.999" y="55.163" style="fill-rule:evenodd;clip-rule:evenodd;fill:#FFFFFF;" width="31.799" height="1.437"/>
	</g>
</g>
<rect x="25.773" y="45.032" style="opacity:0.5;fill-rule:evenodd;clip-rule:evenodd;fill:#000405;" width="12.427" height="1.557"/>
<g style="opacity:0.3;">
	<defs>
		<circle id="SVGID_3_" style="opacity:0.3;" cx="31.833" cy="21.479" r="8.199"/>
	</defs>
	<use xlink:href="#SVGID_3_"  style="overflow:visible;fill:#F9F5E5;"/>
	<clipPath id="SVGID_4_">
		<use xlink:href="#SVGID_3_"  style="overflow:visible;"/>
	</clipPath>
</g>
</svg>
