<?xml version="1.0" encoding="iso-8859-1"?>
<!-- Generator: Adobe Illustrator 16.0.0, SVG Export Plug-In . SVG Version: 6.00 Build 0)  -->
<!DOCTYPE svg PUBLIC "-//W3C//DTD SVG 1.1//EN" "http://www.w3.org/Graphics/SVG/1.1/DTD/svg11.dtd">
<svg version="1.1" id="Layer_1" xmlns="http://www.w3.org/2000/svg" xmlns:xlink="http://www.w3.org/1999/xlink" x="0px" y="0px"
	 width="76.095px" height="90.753px" viewBox="0 0 76.095 90.753" style="enable-background:new 0 0 76.095 90.753;"
	 xml:space="preserve">
<path style="fill:#CCB36E;" d="M9.723,41.712h57.263c2.965,0,5.368-0.28,5.368,2.684v34c0,2.964-2.403,5.368-5.368,5.368H9.723
	c-2.964,0-5.369-2.404-5.369-5.368v-34C4.354,41.432,6.759,41.712,9.723,41.712z"/>
<path style="fill:#E6D5A8;" d="M71.298,41.687c1.399,0.92,1.399,2.414,0,3.335l-30.41,20.006c-1.398,0.921-3.668,0.921-5.067,0
	L5.411,45.022c-1.399-0.921-1.399-2.415,0-3.335l30.41-20.006c1.397-0.921,3.668-0.921,5.067,0L71.298,41.687z"/>
<g>
	<g>
		<defs>
			<path id="SVGID_1_" d="M71.298,41.686c1.399,0.921,1.399,2.414,0,3.335l-30.41,20.006c-1.398,0.921-3.668,0.921-5.067,0
				L5.411,45.021c-1.399-0.921-1.399-2.414,0-3.335l30.41-20.006c1.397-0.92,3.668-0.92,5.067,0L71.298,41.686z"/>
		</defs>
		<clipPath id="SVGID_2_">
			<use xlink:href="#SVGID_1_"  style="overflow:visible;"/>
		</clipPath>
		<path style="clip-path:url(#SVGID_2_);fill:#FFFFFF;" d="M13.88,39.296h50.104v35.79H13.88V39.296z"/>
	</g>
</g>
<path style="opacity:0.5;enable-background:new    ;" d="M25.963,61.992c0.35,0.352,0.35,0.916,0,1.266L10.039,79.183
	c-0.35,0.352-0.916,0.352-1.265,0c-0.35-0.348-0.35-0.914,0-1.266l15.925-15.926C25.047,61.642,25.615,61.642,25.963,61.992z"/>
<path style="opacity:0.5;enable-background:new    ;" d="M51.721,61.992c0.349-0.35,0.914-0.35,1.265,0l15.926,15.926
	c0.351,0.352,0.351,0.918,0,1.266c-0.352,0.352-0.915,0.352-1.266,0L51.721,63.257C51.37,62.908,51.37,62.343,51.721,61.992z"/>
<g>
	<path style="fill:#BBBBBB;" d="M19.818,43.537h38.229c0.269,0,0.489,0.219,0.489,0.489c0,0.271-0.221,0.49-0.489,0.49H19.818
		c-0.271,0-0.491-0.219-0.491-0.49C19.328,43.756,19.547,43.537,19.818,43.537z"/>
	<path style="fill:#BBBBBB;" d="M19.818,46.478h38.229c0.269,0,0.489,0.219,0.489,0.49c0,0.27-0.221,0.49-0.489,0.49H19.818
		c-0.271,0-0.491-0.221-0.491-0.49C19.328,46.697,19.547,46.478,19.818,46.478z"/>
	<path style="fill:#BBBBBB;" d="M19.818,49.417h38.229c0.269,0,0.489,0.221,0.489,0.49s-0.221,0.49-0.489,0.49H19.818
		c-0.271,0-0.491-0.221-0.491-0.49S19.547,49.417,19.818,49.417z"/>
</g>
</svg>
